<svg width="314" height="174" viewBox="0 0 314 174" fill="none" xmlns="http://www.w3.org/2000/svg">
<g clip-path="url(#clip0_401_4)">
<path d="M19.3434 28.92C44.5018 55.9598 69.6603 82.9995 94.8188 110.039L102.225 82.0352C65.6753 96.3623 32.6256 117.482 4.90933 145.345C-10.3299 160.664 13.3959 184.37 28.6462 169.04C52.0825 145.48 80.1286 126.508 111.149 114.348C122.894 109.744 127.767 96.2445 118.556 86.3442C93.3972 59.3043 68.2387 32.2646 43.0802 5.22487C28.3465 -10.6106 4.64951 13.1274 19.3434 28.92Z" fill="#F1F1F1"/>
<path d="M116.277 173.947H297.787C319.387 173.947 319.422 140.437 297.787 140.437H116.277C94.6774 140.437 94.6416 173.947 116.277 173.947Z" fill="#F1F1F1"/>
</g>
<defs>
<clipPath id="clip0_401_4">
<rect width="314" height="174" fill="white"/>
</clipPath>
</defs>
</svg>
