<svg width="555" height="413" viewBox="0 0 555 413" fill="none" xmlns="http://www.w3.org/2000/svg">
<g clip-path="url(#clip0_15_35)">
<path d="M37.8109 348.854C35.143 348.854 32.4696 348.98 29.8588 349.236L29.4789 349.273C12.1614 351.035 -0.505444 361.26 0.0155001 373.058L0.116208 375.191C0.182623 376.539 0.253383 377.989 0.31163 379.598C0.343167 380.391 1.28332 381 2.45317 381H428.42C458.453 380.79 488.376 380.526 517.355 380.214C522.794 380.227 528.228 379.903 533.627 379.244C541.68 378.146 547.269 375.971 550.716 372.594H550.718C555.004 368.406 555.139 363.132 554.88 357.173C554.352 345.142 553.828 332.502 553.305 319.901C552.844 308.795 552.384 297.719 551.925 287.115C551.641 280.822 551.009 275.267 546.142 271.022C540.866 266.431 531.243 264.104 517.542 264.104C517.376 264.104 517.212 264.103 517.044 264.104C474.104 264.28 431.558 281.279 411.173 306.403C408.826 309.296 406.639 312.393 404.523 315.389C401.431 319.988 398.018 324.363 394.31 328.482C392.25 330.702 389.992 332.729 387.563 334.537C387.397 334.669 387.208 334.81 387.008 334.944C386.549 335.287 386.07 335.619 385.603 335.914C382.902 337.715 380.018 339.225 376.999 340.418L376.697 340.534C376.47 340.628 376.224 340.721 375.978 340.807C374.238 341.449 372.464 341.995 370.664 342.442C362.894 344.413 354.058 344.886 344.404 343.845C335.487 342.852 326.721 340.796 318.293 337.719C309.353 334.467 300.985 330.411 292.892 326.489C289.338 324.766 285.661 322.984 281.989 321.296C281.299 320.979 280.62 320.668 279.931 320.358C275.447 318.345 271.381 316.683 267.502 315.277C257.972 311.796 248.002 309.67 237.881 308.961C227.202 308.288 217.791 309.557 209.916 312.726C207.729 313.604 205.614 314.653 203.591 315.863C194.263 321.44 188.513 329.67 182.953 337.629C176.036 347.529 168.884 357.767 154.761 363.074C138.464 369.203 114.676 366.657 97.8467 362.228C92.5554 360.836 87.2707 359.234 82.1596 357.684C80.0954 357.058 78.0297 356.436 75.9625 355.819C71.9005 354.612 68.576 353.686 65.5004 352.906L64.5276 352.657C63.9865 352.521 63.4448 352.386 62.8934 352.257C59.2401 351.374 55.8384 350.679 52.4883 350.132L51.6957 349.999C50.1067 349.758 48.6212 349.558 47.1634 349.389L46.5814 349.323C43.6686 349.008 40.7408 348.851 37.8109 348.854Z" fill="#F2F2F2"/>
<path d="M87.4971 380.943C87.4964 380.709 87.5886 380.485 87.7536 380.319C87.9185 380.153 88.1427 380.059 88.3768 380.058H466.584C466.818 380.059 467.041 380.153 467.206 380.318C467.37 380.484 467.462 380.707 467.462 380.941C467.462 381.174 467.37 381.398 467.206 381.563C467.041 381.729 466.818 381.822 466.584 381.823H88.3768C88.1437 381.822 87.9204 381.73 87.7556 381.565C87.5908 381.4 87.4979 381.177 87.4971 380.943Z" fill="#CACACA"/>
<path d="M385.712 31.9015C385.725 39.9403 382.69 47.685 377.219 53.5744C376.804 54.0265 376.366 54.4638 375.922 54.8863C359.436 42.1964 342.145 30.5871 324.159 20.1312C324.382 19.5679 324.619 19.012 324.878 18.4635C327.939 11.8741 333.157 6.5269 339.669 3.30611C346.181 0.0853106 353.597 -0.816107 360.691 0.75094C367.785 2.31799 374.132 6.25963 378.682 11.924C383.232 17.5883 385.712 24.636 385.712 31.9015Z" fill="#F4A261"/>
<path d="M411.586 96.8311L411.556 97.1646C390.574 95.7193 369.595 94.2715 348.617 92.8212C333.461 91.7761 317.778 90.5901 304.385 83.4153C299.301 80.695 294.35 77.0631 288.584 76.8111C281.432 76.4924 275.191 81.4955 270.285 86.7136C241.283 117.607 232.886 164.844 200.349 191.98C220.87 141.371 245.37 92.4686 273.62 45.7324C278.838 37.0973 285.026 27.8767 294.713 25.0601C303.955 22.3696 313.412 26.298 321.921 31.3382C323.744 32.4203 325.523 33.5544 327.242 34.681C340.354 43.2641 353.25 52.1759 365.931 61.4162C381.503 72.7493 396.721 84.5543 411.586 96.8311Z" fill="#F2F2F2"/>
<path d="M479.446 162.354C457.019 130.696 430.963 101.772 401.81 76.1739C393.428 68.8064 384.798 61.7105 375.922 54.8865C359.436 42.1966 342.145 30.5873 324.159 20.1314C318.26 16.707 312.291 13.4185 306.253 10.2659C301.561 7.82738 296.566 5.59635 291.156 5.94471C287.37 6.26826 283.754 7.65869 280.727 9.95464C274.079 14.8095 269.677 22.3921 266.053 29.6188C262.88 35.9561 259.923 42.4194 256.907 48.8457C255.625 51.5807 254.342 54.3084 253.016 57.0212C248.391 66.5234 243.657 75.9738 238.815 85.3723C232.575 97.4836 226.154 109.503 219.552 121.432C205.685 146.507 191.052 171.13 175.654 195.301C153.019 230.826 128.803 265.275 103.006 298.647C99.8408 302.731 98.5364 303.68 95.3272 307.734C94.586 308.683 93.2668 307.349 94.0005 306.407C120.764 272.579 144.066 240.618 167.56 204.432C185.274 177.148 202.014 149.259 217.781 120.765C222.843 111.626 227.799 102.43 232.649 93.1772C240.498 78.1974 248.075 63.0768 255.38 47.8154C257.307 43.7981 259.214 39.7659 261.102 35.7189C267.098 22.8738 275.828 3.77298 292.69 4.0324C297.648 4.10652 302.251 6.11519 306.594 8.3388C311.019 10.6143 315.362 13.0306 319.697 15.484C321.432 16.4624 323.159 17.4556 324.878 18.4637C331.689 22.4217 338.399 26.5453 345.008 30.8344C356.036 37.987 366.773 45.5671 377.219 53.5746C382.177 57.377 387.061 61.2658 391.871 65.2412C422.053 90.2133 449.191 118.651 472.724 149.968C475.563 153.741 478.342 157.556 481.062 161.413C481.759 162.398 480.136 163.332 479.446 162.354Z" fill="#E4E4E4"/>
<path d="M403.479 66.7397C404.459 65.6474 405.433 64.5552 406.419 63.463C414.195 54.8625 422.539 46.3619 433.217 41.4313C438.308 39.0062 443.867 37.7177 449.506 37.6554C455.334 37.6741 461.032 39.2032 466.418 41.344C468.964 42.3613 471.455 43.5159 473.907 44.7454C476.709 46.156 479.462 47.6601 482.201 49.1768C487.344 52.0228 492.42 54.9936 497.429 58.0893C507.396 64.2494 517.05 70.8797 526.393 77.9801C531.236 81.6625 535.979 85.4655 540.622 89.3891C544.941 93.034 549.172 96.7767 553.316 100.617C554.202 101.435 555.525 100.112 554.639 99.294C553.547 98.2767 552.442 97.2656 551.337 96.267C548.217 93.446 545.047 90.679 541.826 87.9661C535.954 83.0106 529.929 78.2464 523.753 73.6737C514.148 66.5586 504.213 59.9263 493.947 53.7766C488.817 50.7059 483.616 47.7642 478.345 44.9514C476.753 44.1026 475.143 43.2725 473.514 42.4861C469.818 40.6218 465.978 39.0585 462.031 37.8114C456.44 36.0025 450.524 35.4214 444.688 36.1076C439.052 36.9273 433.623 38.8057 428.686 41.6436C418.202 47.5041 410.07 56.5664 402.156 65.4103C401.357 66.309 402.674 67.6384 403.479 66.7397Z" fill="#E4E4E4"/>
<path d="M188.655 155.864L163.532 146.674L151.058 142.111C146.995 140.625 142.942 138.933 138.743 137.869C135.093 136.827 131.218 136.876 127.596 138.011C124.366 139.207 121.409 141.04 118.902 143.401C116.34 145.76 113.957 148.306 111.771 151.017C109.055 154.281 106.379 157.579 103.692 160.867C92.5989 174.433 81.5788 188.059 70.6312 201.744C59.6839 215.428 48.8098 229.17 38.0088 242.971C27.1815 256.805 16.4286 270.698 5.7502 284.648C4.44207 286.357 3.13506 288.066 1.82918 289.777C1.10769 290.722 -0.519134 289.79 0.212536 288.832C10.9697 274.742 21.8019 260.709 32.7091 246.734C43.6431 232.726 54.6526 218.777 65.7377 204.887C76.8225 190.998 87.9823 177.169 99.217 163.4C102.016 159.97 104.819 156.543 107.628 153.121C109.996 150.233 112.338 147.315 114.937 144.628C119.706 139.695 125.664 135.336 132.796 135.218C136.989 135.148 141.048 136.479 144.944 137.889C149.144 139.408 153.334 140.956 157.529 142.491L182.828 151.745L189.153 154.058C190.275 154.469 189.79 156.279 188.655 155.864Z" fill="#E4E4E4"/>
<path d="M436.523 52.2534C449.29 45.6913 465.641 46.9765 477.373 55.1749C454.995 59.036 432.861 64.2022 411.086 70.647C420.128 65.3476 427.202 57.0446 436.523 52.2534Z" fill="#F2F2F2"/>
<path d="M477.499 55.1523L479.956 57.1503C479.125 56.451 478.261 55.7954 477.373 55.175C477.415 55.1677 477.457 55.1596 477.499 55.1523Z" fill="#F2F2F2"/>
<path d="M119.848 155.955C122.321 152.944 124.995 149.792 128.694 148.569L132.147 148.706C105.858 195.164 70.3511 235.759 27.8075 267.998C58.4876 230.651 89.1677 193.303 119.848 155.955Z" fill="#F2F2F2"/>
<path d="M378.885 325.347L357.972 316.12V308.188L365.425 308.146C366.582 308.139 367.707 307.771 368.644 307.092C369.58 306.413 370.28 305.458 370.646 304.36L375.882 288.652C376.159 287.82 376.235 286.933 376.103 286.066C375.97 285.199 375.634 284.376 375.121 283.664C374.608 282.952 373.933 282.373 373.153 281.973C372.372 281.573 371.507 281.365 370.63 281.365H357.972V273.983H373.863C375.115 273.983 376.331 273.558 377.311 272.778C378.291 271.998 378.977 270.908 379.258 269.687L382.864 254.001C383.05 253.19 383.051 252.347 382.867 251.535C382.683 250.724 382.318 249.964 381.799 249.313C381.281 248.661 380.622 248.135 379.872 247.774C379.123 247.412 378.301 247.225 377.468 247.225H357.972V245.379C357.972 244.4 357.583 243.462 356.891 242.769C356.199 242.077 355.26 241.688 354.282 241.688C353.303 241.688 352.364 242.077 351.672 242.769C350.98 243.462 350.591 244.4 350.591 245.379V247.225H219.883V245.379C219.883 244.4 219.494 243.462 218.802 242.769C218.11 242.077 217.171 241.688 216.192 241.688C215.213 241.688 214.275 242.077 213.582 242.769C212.89 243.462 212.502 244.4 212.502 245.379V247.225H197.003C196.171 247.225 195.349 247.412 194.599 247.774C193.85 248.135 193.191 248.661 192.673 249.313C192.154 249.964 191.789 250.724 191.605 251.535C191.421 252.347 191.422 253.19 191.608 254.001L195.214 269.687C195.495 270.908 196.181 271.998 197.161 272.778C198.141 273.558 199.356 273.983 200.609 273.983H212.502V281.365H203.842C202.969 281.365 202.109 281.571 201.331 281.967C200.554 282.362 199.881 282.936 199.367 283.642C198.853 284.347 198.514 285.164 198.376 286.025C198.237 286.887 198.305 287.769 198.573 288.599L203.917 305.185C204.277 306.305 204.986 307.281 205.939 307.971C206.892 308.661 208.04 309.03 209.217 309.023L212.502 309.005V316.12L195.586 325.347C194.859 325.347 194.14 325.49 193.468 325.769C192.796 326.047 192.186 326.455 191.672 326.969C191.158 327.483 190.75 328.093 190.472 328.765C190.194 329.437 190.051 330.156 190.051 330.883C190.051 332.352 190.634 333.76 191.672 334.798C192.71 335.836 194.118 336.42 195.586 336.42H212.502V377.019C212.502 377.998 212.89 378.937 213.582 379.629C214.275 380.321 215.213 380.71 216.192 380.71C217.171 380.71 218.11 380.321 218.802 379.629C219.494 378.937 219.883 377.998 219.883 377.019V336.42H350.591V377.019C350.591 377.998 350.98 378.937 351.672 379.629C352.364 380.321 353.303 380.71 354.282 380.71C355.26 380.71 356.199 380.321 356.891 379.629C357.583 378.937 357.972 377.998 357.972 377.019V336.42H378.885C380.354 336.42 381.762 335.836 382.8 334.798C383.838 333.76 384.421 332.352 384.421 330.883C384.421 330.156 384.278 329.437 384 328.765C383.722 328.093 383.314 327.483 382.8 326.969C382.286 326.455 381.676 326.047 381.004 325.769C380.332 325.49 379.612 325.347 378.885 325.347ZM219.883 273.983H350.591V281.365H219.883V273.983ZM219.883 316.12V308.963L350.591 308.229V316.12H219.883Z" fill="#CCCCCC"/>
<path d="M66.9786 309.686L72.8966 290.412C65.7761 282.574 56.8502 276.594 46.894 272.989C56.6212 289.106 47.1955 310.129 51.1233 328.54C52.3924 334.272 54.9351 339.646 58.563 344.262C62.191 348.878 66.8111 352.619 72.0811 355.207L81.0618 366.335C85.7698 358.109 88.6386 348.959 89.4706 339.518C90.3026 330.076 89.0779 320.566 85.8809 311.644C84.0378 306.656 81.574 301.92 78.5476 297.548C73.2109 303.822 66.9786 309.686 66.9786 309.686Z" fill="#F2F2F2"/>
<path d="M34.4379 312.149L31.1392 292.258C21.2709 288.419 10.6148 287.047 0.0961304 288.261C15.9895 298.348 16.9287 321.369 28.6543 336.095C32.3467 340.66 37.0188 344.335 42.3246 346.849C47.6304 349.362 53.4337 350.65 59.3047 350.615L72.3053 356.57C72.8507 347.108 71.3384 337.639 67.8725 328.817C64.4066 319.996 59.0695 312.03 52.229 305.47C48.355 301.828 44.0378 298.688 39.3793 296.124C37.4008 304.12 34.4379 312.149 34.4379 312.149Z" fill="#F2F2F2"/>
<path d="M501.708 228.083L488.762 212.625C492.276 202.636 498.175 193.655 505.947 186.463C503.25 205.094 520.107 220.799 523.645 239.288C524.704 245.063 524.45 251.003 522.902 256.666C521.354 262.33 518.552 267.572 514.702 272.006L510.754 285.75C503.219 280.001 497.019 272.688 492.582 264.312C488.145 255.937 485.576 246.699 485.053 237.235C484.812 231.923 485.241 226.602 486.33 221.397C493.686 225.103 501.708 228.083 501.708 228.083Z" fill="#F2F2F2"/>
<path d="M532.646 217.7L527.953 198.091C535.552 190.718 544.837 185.311 555 182.34C544.278 197.812 552.362 219.387 547.283 237.514C545.656 243.155 542.78 248.358 538.869 252.737C534.958 257.116 530.112 260.558 524.689 262.809L515.026 273.35C510.845 264.844 508.558 255.532 508.321 246.057C508.085 236.582 509.906 227.168 513.658 218.464C515.811 213.602 518.568 209.03 521.864 204.857C526.795 211.455 532.646 217.7 532.646 217.7Z" fill="#F2F2F2"/>
<path d="M277.094 397.319L268.59 401.422L248.72 370.572L261.27 364.517L277.094 397.319Z" fill="#FFB6B6"/>
<path d="M278.053 273.151L270.495 284.555C270.495 284.555 225.555 314.317 227.431 325.389C228.087 329.261 230.939 337.408 234.607 346.487C235.734 349.276 241.03 354.821 242.271 357.69C248.538 372.173 251.658 383.761 254.668 385.312C258.01 387.044 257.668 385.67 259.716 388.829L271.574 384.382C271.574 384.382 273.421 380.235 274.339 378.182C275.256 376.128 273.817 375.106 273.817 375.106C273.817 375.106 272.077 376.034 272.379 374.085C272.681 372.135 272.577 371.52 271.858 371.009C271.139 370.498 268.355 365.275 268.355 365.275C265.815 361.546 263.774 357.501 262.283 353.243C261.621 351.374 261.687 346.897 260.8 345.089C258.932 341.282 258.271 338.472 255.253 336.492C255.253 336.492 293.25 318.03 296.815 309.201C300.381 300.371 296.712 271.254 296.712 271.254L278.053 273.151Z" fill="#3E3D46"/>
<path d="M281.603 401.8L252.848 413L252.706 412.636C251.55 409.668 251.621 406.361 252.902 403.445C254.183 400.528 256.571 398.24 259.539 397.084L259.54 397.084L263.24 391.053L274.592 391.221L277.102 390.243L281.603 401.8Z" fill="#373945"/>
<path d="M348.686 352.405L362.58 351.353L360.849 388.009L351.434 388.721L348.686 352.405Z" fill="#FFB6B6"/>
<path d="M272.332 283.236C269.137 269.167 278.14 311.118 287.479 318.961C291.15 322.046 306.521 318.853 319.246 319.826C327.043 320.491 334.656 322.559 341.718 325.931C339.688 329.63 341.812 335.151 342.207 340.115C342.927 349.17 343.653 357.497 343.653 357.497C343.653 357.497 343.646 363.415 343.25 364.204C342.855 364.993 343.051 365.585 344.233 367.164C345.415 368.744 343.442 368.742 343.442 368.742C343.442 368.742 342.651 370.319 344.425 371.702C346.198 373.085 350.409 377.113 350.409 377.113L361.702 376.11C362.028 372.359 363.002 371.866 365.141 368.767C367.176 365.835 366.71 348.24 365.276 331.724C365.179 330.605 366.74 327.083 366.634 325.979C365.575 314.897 362.453 307.216 361.077 303.07C360.127 300.209 355.566 297.742 349.402 295.663C348.461 295.346 347.483 295.038 346.475 294.739C329.476 289.696 303.889 287.219 303.889 287.219L289.898 274.774L272.332 283.236Z" fill="#3E3D46"/>
<path d="M350.168 386.709L352.725 385.86L361.358 378.487L368.055 380.769L368.056 380.769C371.079 379.765 374.377 380.004 377.225 381.432C380.072 382.86 382.236 385.361 383.24 388.384L383.363 388.755L354.076 398.48L350.168 386.709Z" fill="#373945"/>
<path d="M285.226 202.225L276.821 208.625L266.685 211.74C266.685 211.74 262.495 270.687 258.719 274.463C254.943 278.239 258.348 278.341 257.59 283.246C256.831 288.151 254.987 298.206 254.987 298.206C280.473 311.698 302.445 312.06 320.094 296.272C320.32 295.296 320.205 294.271 319.769 293.369C319.333 292.466 318.601 291.74 317.695 291.31C314.411 289.567 320.723 281.432 318.039 280.071C315.355 278.711 319.13 266.911 319.13 266.911L316.653 242.292L318.61 238.356L313.835 214.276L305.549 211.249L302.239 203.274L285.226 202.225Z" fill="#ECECEC"/>
<path d="M293.83 198.663C303.011 198.663 310.454 191.219 310.454 182.037C310.454 172.855 303.011 165.411 293.83 165.411C284.648 165.411 277.205 172.855 277.205 182.037C277.205 191.219 284.648 198.663 293.83 198.663Z" fill="#EBBFBF"/>
<path d="M279.961 306.993C279.998 305.929 279.802 304.869 279.386 303.888C278.97 302.908 278.344 302.03 277.552 301.318C276.76 300.606 275.821 300.076 274.802 299.765C273.783 299.455 272.709 299.372 271.654 299.522L259.809 276.497L253.21 288.223L265.47 308.29C265.839 310.045 266.839 311.603 268.281 312.67C269.722 313.737 271.505 314.238 273.291 314.078C275.077 313.918 276.743 313.109 277.972 311.803C279.201 310.497 279.909 308.786 279.961 306.993H279.961Z" fill="#FFB6B6"/>
<path d="M260.013 301.361L234.607 261.983L234.691 261.801C234.787 261.594 240.54 249.168 246.114 237.786C246.973 236.034 247.827 234.306 248.656 232.651C249.013 231.937 249.366 231.238 249.713 230.553C252.054 225.937 254.1 222.122 255.321 220.31C258.022 216.212 262.043 213.161 266.716 211.664L266.834 211.634L266.946 211.681C269.232 212.646 271.121 214.361 272.302 216.543C273.482 218.726 273.884 221.245 273.441 223.687C271.237 235.463 266.326 246.565 259.097 256.118L254.978 261.547L269.291 292.667L260.013 301.361Z" fill="#ECECEC"/>
<path d="M326.173 316.043V317.101C326.173 317.721 325.927 318.315 325.489 318.753C325.051 319.191 324.457 319.437 323.837 319.437H246.147C245.528 319.437 244.934 319.191 244.496 318.753C244.058 318.315 243.812 317.721 243.812 317.101V316.043C243.812 315.424 244.058 314.83 244.496 314.392C244.934 313.954 245.528 313.708 246.147 313.707H247.527C247.478 313.537 247.453 313.36 247.452 313.183V273.528C247.452 273.009 247.658 272.51 248.026 272.143C248.393 271.776 248.891 271.569 249.411 271.569H320.574C321.094 271.569 321.592 271.776 321.959 272.143C322.326 272.51 322.533 273.009 322.533 273.528V313.183C322.533 313.36 322.508 313.537 322.458 313.707H323.837C324.457 313.708 325.051 313.954 325.489 314.392C325.927 314.83 326.173 315.424 326.173 316.043Z" fill="#232323"/>
<path d="M286.523 293.973C285.645 293.973 284.787 293.713 284.056 293.225C283.326 292.737 282.757 292.044 282.421 291.232C282.085 290.421 281.997 289.528 282.168 288.667C282.34 287.806 282.763 287.014 283.383 286.393C284.004 285.772 284.796 285.349 285.657 285.178C286.518 285.007 287.411 285.095 288.222 285.431C289.034 285.767 289.727 286.336 290.215 287.066C290.703 287.796 290.963 288.655 290.963 289.533C290.962 290.71 290.494 291.839 289.661 292.671C288.829 293.504 287.7 293.972 286.523 293.973ZM286.523 285.858C285.796 285.858 285.086 286.074 284.482 286.478C283.877 286.881 283.406 287.455 283.128 288.127C282.85 288.798 282.777 289.537 282.919 290.25C283.061 290.963 283.411 291.618 283.925 292.132C284.439 292.646 285.093 292.996 285.806 293.137C286.519 293.279 287.258 293.207 287.929 292.928C288.601 292.65 289.175 292.179 289.579 291.575C289.982 290.97 290.198 290.26 290.198 289.533C290.197 288.559 289.809 287.625 289.12 286.936C288.431 286.247 287.497 285.859 286.523 285.858Z" fill="#333333"/>
<path d="M284.993 292.06C287.233 292.06 289.05 290.243 289.05 288.002C289.05 285.761 287.233 283.945 284.993 283.945C282.752 283.945 280.935 285.761 280.935 288.002C280.935 290.243 282.752 292.06 284.993 292.06Z" fill="#444444"/>
<path d="M347.375 150.418C346.676 151.221 346.161 152.168 345.867 153.192C345.573 154.216 345.507 155.291 345.673 156.343C345.84 157.396 346.235 158.398 346.832 159.281C347.428 160.164 348.21 160.905 349.124 161.453L343.828 186.798L356.337 181.845L359.449 158.536C360.267 156.94 360.471 155.1 360.023 153.363C359.575 151.627 358.506 150.115 357.018 149.114C355.529 148.113 353.726 147.693 351.949 147.934C350.172 148.174 348.545 149.058 347.376 150.418L347.375 150.418Z" fill="#EBBFBF"/>
<path d="M359.325 167.355L354.266 213.945L354.087 214.033C353.939 214.105 347.53 217.249 339.663 220.993C338.336 221.625 338.526 224.36 337.139 225.014C336.184 225.465 333.661 223.83 332.695 224.282C324.096 228.304 315.401 232.214 311.936 233.274C307.257 234.756 302.213 234.594 297.64 232.813L297.529 232.763L297.472 232.656C296.303 230.467 295.916 227.945 296.373 225.506C296.83 223.067 298.104 220.857 299.986 219.239C309.113 211.479 319.918 205.946 331.549 203.078L338.167 201.454L346.643 168.266L359.325 167.355Z" fill="#ECECEC"/>
<path d="M331.001 149.933L332.905 167.21C333.037 167.641 333.304 168.018 333.667 168.286C334.03 168.554 334.469 168.699 334.92 168.699H343.695C344.146 168.699 344.585 168.554 344.948 168.286C345.311 168.018 345.578 167.641 345.711 167.21L347.287 153.968C347.742 154.191 348.244 154.303 348.751 154.295C349.257 154.286 349.755 154.157 350.202 153.919C350.65 153.681 351.034 153.34 351.324 152.924C351.614 152.508 351.801 152.029 351.87 151.527C351.939 151.025 351.887 150.514 351.72 150.035C351.553 149.557 351.274 149.125 350.908 148.775C350.541 148.425 350.096 148.167 349.61 148.023C349.125 147.878 348.611 147.851 348.113 147.943C347.916 147.711 347.671 147.524 347.395 147.397C347.118 147.269 346.818 147.203 346.513 147.204H333.017C332.687 147.204 332.361 147.281 332.067 147.43C331.772 147.578 331.516 147.794 331.32 148.06C331.124 148.325 330.993 148.633 330.938 148.958C330.882 149.284 330.904 149.617 331.001 149.933ZM347.563 153.072L348.528 149.933C348.64 149.571 348.651 149.185 348.56 148.817C348.602 148.814 348.641 148.804 348.682 148.804C349.289 148.804 349.87 149.045 350.299 149.474C350.728 149.903 350.969 150.485 350.969 151.091C350.969 151.698 350.728 152.279 350.299 152.708C349.87 153.137 349.289 153.378 348.682 153.378C348.289 153.375 347.903 153.27 347.563 153.072Z" fill="#373945"/>
<path d="M307.371 167.754C306.004 163.776 299.198 161.017 288.164 160.634C277.131 160.25 274.333 173.253 274.333 173.253C266.967 179.229 282.198 195.226 282.934 194.65L282.603 191.645C282.055 186.666 279.723 182.782 282.688 177.593L285.535 177.626C289.212 178.333 292.888 179.04 296.565 179.747L292.212 175.914L292.335 175.724C294.186 176.689 296.201 177.301 298.276 177.529C300.616 177.666 303.173 176.735 304.294 174.677C304.593 174.111 304.776 173.491 304.832 172.853C307.986 174.114 309.429 178.003 309.429 178.003C309.429 178.003 308.738 171.732 307.371 167.754Z" fill="#41382E"/>
</g>
<defs>
<clipPath id="clip0_15_35">
<rect width="555" height="413" fill="white"/>
</clipPath>
</defs>
</svg>
