<svg width="314" height="309" viewBox="0 0 314 309" fill="none" xmlns="http://www.w3.org/2000/svg">
<g clip-path="url(#clip0_401_7)">
<path d="M10.749 19.4285C2.57093 107.59 -0.945118 196.134 0.216323 284.667C0.32239 292.754 6.80529 298.946 14.77 299.235C104.361 302.488 193.953 305.741 283.544 308.993C289.355 309.204 296.566 304.359 297.578 298.298C312.424 209.388 317.383 119.111 311.723 29.1313C311.185 20.5765 305.437 15.5107 297.17 14.5633C207.145 4.24657 116.561 -0.597775 25.9503 0.0587776C7.22793 0.194435 7.1852 29.3308 25.9503 29.1949C116.561 28.5384 207.145 33.3827 297.17 43.6993L282.616 29.1312C288.107 116.426 283.918 204.267 269.511 290.553L283.544 279.857C193.953 276.605 104.361 273.352 14.77 270.099L29.3237 284.667C28.1622 196.134 31.6783 107.59 39.8563 19.4285C40.584 11.5835 32.6464 4.86041 25.3026 4.86041C16.8257 4.86041 11.4788 11.5611 10.749 19.4285Z" fill="#052B2F"/>
<path d="M151.926 56.6101C147.993 57.1519 144.773 58.1345 141.109 59.8493C139.14 60.7709 137.367 62.2677 135.756 63.6789C135.302 64.0763 134.912 64.5136 134.532 64.9792C133.481 66.2663 132.291 67.5888 131.525 69.0856C129.87 72.32 128.996 75.2052 128.841 78.8397C128.685 82.5134 129.729 85.4598 131.21 88.7046C132.925 92.4597 136.525 95.9278 140.116 97.8989C144.199 100.14 148.986 101.382 153.659 101.071C157.661 100.803 161.506 99.9713 165.331 98.8403C166.509 98.4919 167.666 98.1073 168.805 97.6438C170.949 96.7705 173.168 95.9755 175.05 94.5991C178.026 92.4235 180.044 90.6449 182.047 87.524C183.255 85.6413 184.217 83.4594 184.638 81.2569C185.305 77.7776 185.524 74.8161 184.585 71.3398C183.704 68.0734 181.971 65.1376 179.601 62.7351C177.262 60.3629 174.486 58.9819 171.391 57.8777C169.25 57.114 166.87 56.9167 164.615 56.8236C163.523 56.7785 162.431 56.8628 161.346 56.9804C158.861 57.2495 156.314 57.4738 153.88 58.0846C148.824 59.3537 144.422 62.2001 141.257 66.3007C139.557 68.5038 138.195 70.8351 137.518 73.5952C137.123 75.2076 136.892 76.9131 136.891 78.5822C136.889 79.9108 137.218 81.5104 137.433 82.8209C137.493 83.1886 137.555 83.5192 137.664 83.8764C139.253 89.0422 142.948 93.7597 147.786 96.2646C152.152 98.5248 156.995 99.4968 161.901 99.1953C166.547 98.9097 170.801 98.3 174.962 96.1266C182.066 92.416 185.925 83.8999 183.816 76.1161C181.62 68.0073 173.783 62.5458 165.502 62.6057C160.286 62.6434 155.246 64.6962 150.673 67.013C147.035 68.8567 143.706 71.4313 140.694 74.1549C138.011 76.5817 136.432 80.9128 136.432 84.4561C136.432 88.0292 138.017 92.2972 140.694 94.7573C143.468 97.3059 147.109 99.198 150.985 99.0242C154.956 98.8462 158.305 97.4444 161.276 94.7573C161.947 94.1506 162.637 93.5715 163.35 93.0151L160.404 95.293C162.574 93.65 164.91 92.2942 167.413 91.2257L163.936 92.6942C165.387 92.0996 166.86 91.565 168.41 91.3004L164.541 91.8207C165.193 91.7462 165.805 91.7343 166.458 91.8024L162.589 91.282C163.017 91.3658 163.368 91.4598 163.771 91.6205L160.294 90.1519C160.645 90.33 160.94 90.5138 161.255 90.7511L158.309 88.4732C158.502 88.6324 158.678 88.8085 158.838 89.0014L156.562 86.053C156.793 86.3647 156.956 86.6409 157.112 86.9957L155.645 83.5157C155.729 83.7433 155.783 83.978 155.806 84.2198L155.286 80.3471C155.306 80.576 155.298 80.8038 155.262 81.0305L155.782 77.1577C155.751 77.3568 155.699 77.5502 155.626 77.7378L157.093 74.2578C156.966 74.5371 156.834 74.7614 156.652 75.0091L158.928 72.0607C158.723 72.2925 158.521 72.4836 158.281 72.6793L161.227 70.4013C160.873 70.6503 160.513 70.8539 160.122 71.0388L163.599 69.5703C162.643 69.9696 161.653 70.2027 160.63 70.3508L164.499 69.8304C162.362 70.0911 160.177 70.2386 158.034 69.9758L161.903 70.4961C161.016 70.3525 160.17 70.1416 159.338 69.7972L162.815 71.2658C162.242 70.996 161.718 70.6855 161.208 70.3125L164.153 72.5904C163.665 72.1956 163.239 71.7746 162.845 71.2865L165.12 74.2349C164.834 73.8351 164.598 73.4334 164.392 72.9868L165.859 76.4668C165.685 76.0064 165.57 75.5631 165.501 75.0755L166.021 78.9482C165.997 78.5645 166.003 78.2167 166.041 77.8341L165.521 81.7068C165.61 81.2074 165.744 80.7532 165.937 80.2843L164.47 83.7643C164.695 83.3057 164.949 82.8913 165.253 82.4805L162.977 85.4289C163.39 84.9293 163.835 84.4966 164.341 84.0927L161.395 86.3706C161.958 85.9647 162.537 85.6409 163.167 85.3512L159.691 86.8198C161.107 86.2417 162.572 85.939 164.083 85.7301L160.214 86.2505C162.056 86.0193 163.895 85.8373 165.748 86.0575L161.879 85.5371C162.61 85.6511 163.297 85.8258 163.982 86.1094L160.505 84.6408C160.936 84.8505 161.321 85.0856 161.7 85.3785L158.755 83.1005C159.032 83.3488 159.264 83.593 159.499 83.8812L157.223 80.9328C157.438 81.2453 157.605 81.5384 157.765 81.8825L156.297 78.4025C156.425 78.7506 156.516 79.0743 156.588 79.4379L156.068 75.5651C156.13 76.0566 156.138 76.5235 156.101 77.0173L156.621 73.1445C156.535 73.7754 156.382 74.3605 156.159 74.9558L157.626 71.4758C157.369 72.0666 157.066 72.6034 156.694 73.1285L158.97 70.1801C158.553 70.7085 158.098 71.1583 157.582 71.5899L160.528 69.312C159.615 70.0107 158.64 70.5528 157.59 71.0172L161.067 69.5486C157.967 70.8331 154.552 71.7823 151.24 72.2994L155.109 71.7791C153.654 71.9726 152.22 72.021 150.761 71.8425L154.63 72.3629C153.842 72.2342 153.101 72.0436 152.355 71.7583L155.831 73.2268C155.009 72.8753 154.266 72.4498 153.55 71.9145L156.495 74.1925C155.914 73.7197 155.405 73.2094 154.943 72.6186L157.219 75.567C156.867 75.0679 156.581 74.5613 156.344 73.9992L157.811 77.4792C157.648 77.0201 157.533 76.5715 157.457 76.0902L157.977 79.963C157.929 79.4505 157.935 78.9648 157.991 78.453L157.471 82.3258C157.561 81.8091 157.695 81.3293 157.88 80.8385L156.412 84.3185C156.681 83.7134 157.001 83.1684 157.389 82.6333L155.114 85.5817C155.618 84.9521 156.171 84.4053 156.799 83.8996L153.854 86.1775C154.662 85.5808 155.504 85.1248 156.428 84.7323L152.951 86.2009C155.114 85.3659 157.379 85.0203 159.664 84.7056C163.005 84.2455 166.749 80.7697 168.362 78.0107C170.187 74.8881 170.961 70.286 169.829 66.7851C168.689 63.2601 166.507 59.8592 163.141 58.0788L159.664 56.6102C157.085 55.9164 154.505 55.9163 151.926 56.6101Z" fill="#052B2F"/>
<path d="M80.8603 166.22L226.052 169.06C244.79 169.426 244.79 140.29 226.052 139.923L80.8603 137.084C62.1225 136.718 62.123 165.854 80.8603 166.22Z" fill="#052B2F"/>
<path d="M80.8603 234.174L226.052 237.013C244.79 237.38 244.79 208.244 226.052 207.877L80.8603 205.038C62.1225 204.672 62.123 233.808 80.8603 234.174Z" fill="#052B2F"/>
</g>
<defs>
<clipPath id="clip0_401_7">
<rect width="314" height="309" fill="#052B2F"/>
</clipPath>
</defs>
</svg>
