<svg width="948" height="1241" viewBox="0 0 948 1241" fill="none" xmlns="http://www.w3.org/2000/svg">
<g clip-path="url(#clip0_102_2)">
<path d="M506.78 1234.31C508.367 1234.31 509.891 1233.69 511.031 1232.59C512.172 1231.49 512.838 1229.99 512.89 1228.4L485.69 847.88H447.87L500.67 1228.4C500.722 1229.99 501.389 1231.49 502.529 1232.59C503.669 1233.69 505.194 1234.31 506.78 1234.31V1234.31Z" fill="white" stroke="#3F4D79" stroke-width="5" stroke-miterlimit="10" stroke-linecap="round"/>
<path d="M271.78 1234.31C273.366 1234.31 274.891 1233.69 276.031 1232.59C277.171 1231.49 277.838 1229.99 277.89 1228.4L330.69 847.88H292.87L265.67 1228.4C265.722 1229.99 266.388 1231.49 267.529 1232.59C268.669 1233.69 270.193 1234.31 271.78 1234.31V1234.31Z" fill="white" stroke="#3F4D79" stroke-width="5" stroke-miterlimit="10" stroke-linecap="round"/>
<path d="M162.78 1234.31C164.366 1234.31 165.891 1233.69 167.031 1232.59C168.171 1231.49 168.838 1229.99 168.89 1228.4L221.69 847.88H183.87L156.67 1228.4C156.722 1229.99 157.388 1231.49 158.529 1232.59C159.669 1233.69 161.193 1234.31 162.78 1234.31V1234.31Z" fill="white" stroke="#3F4D79" stroke-width="5" stroke-miterlimit="10" stroke-linecap="round"/>
<path d="M148.8 766.29L159.72 810.09H195.62L184.7 766.29H148.8Z" fill="white" stroke="#3F4D79" stroke-width="5" stroke-miterlimit="10" stroke-linecap="round"/>
<path d="M288.93 766.29L299.85 810.09H335.75L324.83 766.29H288.93Z" fill="white" stroke="#3F4D79" stroke-width="5" stroke-miterlimit="10" stroke-linecap="round"/>
<path d="M154.86 807.08H530.11C542.481 807.08 552.51 817.106 552.51 829.475C552.51 841.843 542.481 851.87 530.11 851.87H154.86C142.489 851.87 132.46 841.843 132.46 829.475C132.46 817.106 142.489 807.08 154.86 807.08Z" fill="#005F73"/>
<path d="M0.480011 458.53L68.53 731.53C71.2184 742.308 77.434 751.878 86.188 758.717C94.942 765.555 105.731 769.27 116.84 769.27H364.84C378.57 769.27 388.12 748.52 383.39 728.95L315.6 448.61C312.38 435.29 304.03 426.45 294.68 426.45H25.24C14.3 426.45 -3.24999 443 0.480011 458.53Z" fill="#005F73"/>
<path d="M783.14 1168.44C783.14 1175.36 761.73 1196.55 768.94 1231.97C768.94 1231.97 821.76 1232.05 847.67 1232.21C878.47 1232.4 943.98 1232.4 943.98 1232.4C943.98 1232.4 950.34 1204.17 916.6 1200.26C882.86 1196.35 840.09 1160.69 840.09 1160.69L783.14 1168.44Z" fill="#DBDBDB"/>
<path d="M766.67 1235.21C797.47 1235.4 943.98 1235.4 943.98 1235.4" stroke="#3F4D79" stroke-width="7" stroke-miterlimit="10" stroke-linecap="round"/>
<path d="M839.09 1160.69C835.75 1151.38 830.94 1120.97 830.94 1120.97L776.67 1125.73C776.67 1125.73 785.67 1146.06 784.14 1167.44C783.62 1174.65 842.76 1170.9 839.09 1160.69Z" fill="#FFC0B7"/>
<path d="M291.4 781.24C351.74 805.9 634.61 790.33 634.61 790.33C634.61 790.33 640.4 1011.94 746.77 1126.66C746.77 1126.66 820.14 1124.2 840.25 1119.01C840.25 1119.01 784.65 787.35 744.9 722.2C723.9 687.71 487.46 635.08 436.48 630.65C421.296 640.765 405.179 649.404 388.35 656.45C342.01 676 294.48 683 258.74 685.07C253.25 717.11 252.38 765.3 291.4 781.24Z" fill="#3C4564"/>
<path d="M742.14 1168.44C742.14 1175.36 720.73 1196.55 727.94 1231.97C727.94 1231.97 780.76 1232.05 806.67 1232.21C837.47 1232.4 902.98 1232.4 902.98 1232.4C902.98 1232.4 909.34 1204.17 875.6 1200.26C841.86 1196.35 799.09 1160.69 799.09 1160.69L742.14 1168.44Z" fill="#E5E5E5"/>
<path d="M725.67 1235.21C756.47 1235.4 902.98 1235.4 902.98 1235.4" stroke="#3F4D79" stroke-width="7" stroke-miterlimit="10" stroke-linecap="round"/>
<path d="M798.09 1160.69C794.75 1151.38 789.94 1120.97 789.94 1120.97L727.67 1127.73C727.67 1127.73 738.97 1138.09 743.14 1167.44C744.16 1174.59 801.76 1170.9 798.09 1160.69Z" fill="#FFCFC9"/>
<path d="M247.73 807.31C308.07 832 590.94 816.4 590.94 816.4C590.94 816.4 585.1 1009.4 718.72 1128.08C718.72 1128.08 785.58 1123.27 805.72 1118.08C805.72 1118.08 720.08 804.72 701.26 748.27C690.96 717.37 428.26 657.79 388.38 656.45C322.59 684.21 254.48 686.6 220.94 685.7C214.95 706 195.22 785.86 247.73 807.31Z" fill="#3F4D79"/>
<path d="M420.23 547C488.67 560.65 653.09 554.8 722.02 540.95C725.759 543.84 729.688 546.476 733.78 548.84C742.78 554.01 760.11 558.19 764.22 557.96C768.33 557.73 793.55 553.86 793.55 553.86C793.55 553.86 794.45 551.01 790.76 547.25C787.07 543.49 760.02 546.48 769.91 538.25C774.31 534.57 796.22 542.85 805.75 552.03C815.28 561.21 819.75 553.94 819.75 553.94C819.75 553.94 810.63 536.94 807.36 533.86C804.09 530.78 782.36 517.72 767.64 515.73C756.98 514.29 731.34 516.27 717.77 519.54C667.48 507.6 570.99 492.38 502.29 492.93C493.16 454.93 482.07 408.41 479.12 394.65L430.28 426.65L420.23 547Z" fill="#FFC0B7"/>
<path d="M479.12 394.65L482.2 408.3C482.2 408.3 469.55 440.35 428.72 450.93L430.28 426.63L479.12 394.65Z" fill="#FAB6AD"/>
<path d="M181.66 480.06C181.66 480.06 185.31 479.83 191.46 479.2C198.46 530.89 204.62 574.31 204.62 583.84C204.62 609.45 199.62 684.45 199.62 684.45C199.62 684.45 334.48 699.58 437.34 630.06C437.34 630.06 413.5 597.97 425.87 496.85C434.09 429.58 430.28 426.63 430.28 426.63C430.28 426.63 455.48 413.49 491.22 385.18C491.22 385.18 472.67 293.48 443.08 275.49C413.49 257.5 367.57 249.11 337.08 237.63C306.59 226.15 260.24 214.23 260.24 214.23C247.87 224.38 189.14 253.09 174.57 270.31C153.81 289.34 125.35 364.81 181.66 480.06Z" fill="#94D2BD"/>
<path d="M300.23 449.9C300.23 449.9 287.62 429.19 272.41 353.69" stroke="#94D2BD" stroke-width="5" stroke-miterlimit="10"/>
<path d="M431.4 424.72C432.84 406.46 430.9 372.29 428.54 353.3" stroke="#94D2BD" stroke-width="5" stroke-miterlimit="10"/>
<path d="M191.48 479.2C191.48 479.2 244.93 614.28 269.13 616.52C347.95 623.81 479.67 548.75 508.13 547.87L520.61 547.47C527.61 551.58 536.51 555.08 544.04 552.87C559.22 548.43 571.38 537.46 581.44 542.17C591.5 546.88 603.11 555.92 609.49 555.17C622.84 553.56 630.54 546.47 630.54 546.47C630.54 546.47 622.23 537.41 613.84 528.8C619.79 531.13 628.84 537.53 633.47 539.73C640.47 543.04 644.07 537.12 644.07 537.12C644.07 537.12 628.46 523.33 623.07 520.06C617.86 516.91 603.24 513.6 595.86 513.44C586.93 512.24 537.95 505.55 512.71 508.21C483.77 507.14 425.71 509.21 323.43 528.44L294.12 453.26C294.12 453.26 249.61 473.05 191.48 479.2Z" fill="#FFCFC9"/>
<path d="M191.48 479.21C191.48 479.21 196.31 491.42 203.73 508.56C228.04 501.38 267.45 486.13 295.73 457.38L294.12 453.24C294.12 453.24 249.6 473.05 191.48 479.21Z" fill="#FAB6AD"/>
<path d="M313.7 124.14C313.7 124.14 309.7 181.14 260.27 214.23C260.27 214.23 286.32 271.23 346.38 275.17C406.44 279.11 361.15 245.38 361.15 245.38C361.15 245.38 376.82 193.53 379.48 181.17L313.7 124.14Z" fill="#FFCFC9"/>
<path d="M313.88 153.74C316.88 179.81 339.88 217.18 368.41 221.01C372.89 205.76 378.05 187.79 379.47 181.17L317.02 127L315.08 130.86C315.08 130.86 313.24 148.24 313.88 153.74Z" fill="#FAB6AD"/>
<path d="M318.4 128.22C318.4 128.22 317.47 146.09 319.87 151.08C330.92 174.08 365.57 200.48 392.51 200.48C413.36 200.48 437.79 136.95 439.99 113.54C442.19 90.13 439.11 53.04 382.59 48.63C326.07 44.22 322.09 102.94 322.09 102.94L318.4 128.22Z" fill="#FFCFC9"/>
<path d="M483.27 89.7C483.27 89.7 493.78 68.82 476.21 53.49C455.48 35.38 436.48 43.77 425.86 32.29C415.24 20.81 393.05 -3.71004 360.06 0.479955C330.48 4.23996 321.85 24.78 321.85 24.78C321.85 24.78 303.55 17.07 287.66 37.78C271.77 58.49 310.15 144.78 310.15 144.78C310.15 144.78 320.48 110.4 322.09 103C325.7 86.43 358.3 90.34 355.65 57.95C355.65 57.95 364.48 80.03 398.04 79.61C408.04 79.49 420.96 76.75 433.79 74.85C440.89 87.42 441.08 102.15 439.99 113.59C439.99 113.54 470 113.08 483.27 89.7Z" fill="#AA8866"/>
<path d="M322.76 24.78C322.76 24.78 307.94 10.69 292.21 24.16" stroke="#AA8866" stroke-width="3" stroke-miterlimit="10"/>
<path d="M355.65 56.08C355.65 56.08 361.8 85.81 395.31 87.75" stroke="#AA8866" stroke-width="3" stroke-miterlimit="10"/>
<path d="M313.21 93.54L323.87 13.05C324.223 10.3708 325.586 7.92778 327.682 6.22114C329.777 4.5145 332.445 3.67338 335.14 3.87001" stroke="#3F4D79" stroke-width="5" stroke-miterlimit="10" stroke-linecap="round"/>
<path d="M304.34 151.92C301.48 166 276.58 204.51 319.87 278C363.16 351.49 306.87 373.38 335.34 423.72C363.81 474.06 425.53 471.3 422.34 555.54C420.24 610.97 469.94 618.47 467.07 555.54" stroke="#3F4D79" stroke-width="5" stroke-miterlimit="10" stroke-linecap="round"/>
<path d="M395.05 480.07C380.19 467.94 365.16 399.25 389 360.17C412.84 321.09 436.14 268.41 401 202.05" stroke="#3F4D79" stroke-width="5" stroke-miterlimit="10" stroke-linecap="round"/>
<path d="M303.67 92.135L324.691 95.3104C331.086 96.2764 335.487 102.243 334.521 108.638L329.199 143.868C328.233 150.263 322.266 154.664 315.871 153.698L294.85 150.523C288.455 149.557 284.054 143.59 285.02 137.195L290.342 101.965C291.308 95.5699 297.275 91.169 303.67 92.135Z" fill="white" stroke="#0A9396" stroke-width="6" stroke-miterlimit="10"/>
<path d="M926.58 575.65H388.48C382.76 575.65 378.12 582.29 378.12 590.49V591.85C378.12 600.04 382.76 606.68 388.48 606.68H793.58" fill="white"/>
<path d="M920.58 573.65H388.48C382.76 573.65 378.12 580.29 378.12 588.49V589.85C378.12 598.04 382.76 604.68 388.48 604.68H791.58" stroke="#BFD2CC" stroke-width="5" stroke-miterlimit="10" stroke-linecap="round"/>
<path d="M413.77 1240.91L515.72 605.68H480.62L379.67 1239.91L413.77 1240.91Z" fill="white"/>
<path d="M474.69 637.94L512.55 623.81L515.73 605.68H480.61L474.69 637.94Z" fill="#94D2BD"/>
<path d="M415.77 1236.91L515.72 605.68H480.62L381.67 1235.91" stroke="#BFD2CC" stroke-width="7" stroke-miterlimit="10" stroke-linecap="round"/>
<path d="M542.38 547.5H845.21C849.223 547.502 853.14 546.272 856.43 543.975C859.721 541.679 862.227 538.427 863.61 534.66L933.4 344.47C934.273 342.111 934.562 339.577 934.243 337.082C933.924 334.588 933.006 332.207 931.568 330.144C930.13 328.081 928.214 326.397 925.983 325.235C923.753 324.072 921.275 323.467 918.76 323.47H611.93C607.402 323.474 602.984 324.87 599.276 327.469C595.568 330.068 592.749 333.745 591.2 338L523.98 521.16C522.896 524.121 522.542 527.301 522.949 530.428C523.355 533.556 524.511 536.539 526.317 539.124C528.123 541.71 530.526 543.821 533.323 545.279C536.119 546.737 539.226 547.499 542.38 547.5Z" fill="white" stroke="#005F73" stroke-width="5" stroke-miterlimit="10"/>
<path d="M555.56 547.5H848.21C852.137 547.46 855.956 546.204 859.14 543.904C862.324 541.605 864.717 538.375 865.99 534.66L933.43 344.47C937.04 334.3 929.76 323.47 919.28 323.47H622.77C618.348 323.519 614.05 324.938 610.469 327.531C606.887 330.124 604.197 333.764 602.77 337.95L537.77 521.12C533.25 534 542.4 547.5 555.56 547.5Z" fill="white" stroke="#005F73" stroke-width="5" stroke-miterlimit="10"/>
<path d="M413.14 547.5H848.83C854.392 547.5 858.9 552.009 858.9 557.57V558.09C858.9 563.652 854.392 568.16 848.83 568.16H413.14C407.579 568.16 403.07 563.652 403.07 558.09V557.57C403.07 552.009 407.579 547.5 413.14 547.5Z" fill="white" stroke="#005F73" stroke-width="5" stroke-miterlimit="10"/>
</g>
<defs>
<clipPath id="clip0_102_2">
<rect width="947.48" height="1240.91" fill="white" transform="matrix(-1 0 0 1 947.48 0)"/>
</clipPath>
</defs>
</svg>
