<svg width="279" height="90" viewBox="0 0 279 90" fill="none" xmlns="http://www.w3.org/2000/svg">
<path d="M151.142 61.4085C151.967 61.33 152.572 60.5978 152.493 59.7731C152.415 58.9484 151.683 58.3435 150.858 58.422L151.142 61.4085ZM120.114 44.6391L121.011 43.4365L120.972 43.4079L120.932 43.3817L120.114 44.6391ZM68.9747 53.5091L69.6573 54.8448L68.9747 53.5091ZM9.82887 15.2498C9.1384 14.792 8.20758 14.9807 7.74981 15.6711L0.290016 26.9229C-0.167754 27.6133 0.0208808 28.5442 0.711343 29.0019C1.40181 29.4597 2.33263 29.2711 2.7904 28.5806L9.42133 18.5791L19.4229 25.21C20.1133 25.6678 21.0442 25.4791 21.5019 24.7887C21.9597 24.0982 21.7711 23.1674 21.0806 22.7096L9.82887 15.2498ZM150.858 58.422C144.343 59.0424 138.071 56.1561 121.011 43.4365L119.217 45.8416C136.085 58.4173 143.288 62.1564 151.142 61.4085L150.858 58.422ZM120.932 43.3817C114.617 39.273 108.314 37.9054 100.093 39.4079C92.0027 40.8866 82.0367 45.1485 68.292 52.1735L69.6573 54.8448C83.4045 47.8186 93.0206 43.7502 100.633 42.359C108.115 40.9915 113.636 42.2144 119.296 45.8964L120.932 43.3817ZM68.292 52.1735C61.324 55.7348 48.7042 55.8397 36.8092 50.3894C25.0169 44.9862 14.1157 34.1914 10.4701 16.2021L7.52988 16.7979C11.3843 35.8177 22.9831 47.3542 35.5595 53.1167C48.0332 58.8321 61.6507 58.937 69.6573 54.8448L68.292 52.1735Z" fill="#F8F9F9"/>
<path d="M174.484 19.9844C174.172 20.1406 173.875 20.3125 173.594 20.5C173.344 20.6562 173.094 20.8125 172.844 20.9688C172.594 21.0938 172.344 21.1875 172.094 21.25C171.844 21.3125 171.578 21.3125 171.297 21.25C171.109 21.25 170.953 21.1406 170.828 20.9219C170.703 20.6719 170.609 20.4062 170.547 20.125C170.453 19.8125 170.391 19.5156 170.359 19.2344C170.328 18.9219 170.328 18.6875 170.359 18.5312L174.859 15.9531L175.141 3.95312C175.203 3.54688 175.453 3.39062 175.891 3.48438C176.328 3.54688 176.781 3.64063 177.25 3.76562C177.312 3.76562 177.406 3.79687 177.531 3.85938C177.688 3.89062 177.797 3.92188 177.859 3.95312C177.797 4.79688 177.719 5.71875 177.625 6.71875C177.562 7.6875 177.5 8.67187 177.438 9.67188C177.375 10.6406 177.328 11.5938 177.297 12.5312C177.297 13.4688 177.344 14.3125 177.438 15.0625L184.469 13.0938C184.594 13.0625 184.688 13.1563 184.75 13.375C184.844 13.5625 184.922 13.7969 184.984 14.0781C185.078 14.3594 185.141 14.6406 185.172 14.9219C185.203 15.2031 185.219 15.3438 185.219 15.3438L177.25 18.7188C177.25 19 177.266 19.6719 177.297 20.7344C177.359 21.7969 177.422 23.0625 177.484 24.5312C177.547 25.9688 177.609 27.5312 177.672 29.2188C177.734 30.875 177.797 32.4219 177.859 33.8594C177.922 35.2969 177.969 36.5625 178 37.6562C178.031 38.7188 178.047 39.3906 178.047 39.6719C177.984 40.6094 177.703 41.0781 177.203 41.0781C176.734 41.0781 176.219 40.8438 175.656 40.375L174.484 19.9844ZM204.378 19.5156C203.221 19.0781 202.112 19.25 201.049 20.0312C199.987 20.8125 198.971 21.9219 198.003 23.3594C197.034 24.7656 196.112 26.375 195.237 28.1875C194.362 30 193.549 31.7188 192.799 33.3438C192.049 34.9688 191.362 36.3594 190.737 37.5156C190.143 38.6719 189.596 39.3125 189.096 39.4375C188.721 39.4375 188.424 39.375 188.206 39.25C188.018 39.0938 187.924 38.7344 187.924 38.1719V5.21875C187.924 4.9375 188.034 4.76563 188.253 4.70312C188.503 4.64062 188.768 4.625 189.049 4.65625C189.331 4.6875 189.596 4.76563 189.846 4.89062C190.096 4.98438 190.253 5.09375 190.315 5.21875L190.924 31.6094C191.268 31.0469 191.581 30.2656 191.862 29.2656C192.174 28.2344 192.534 27.1406 192.94 25.9844C193.346 24.7969 193.815 23.625 194.346 22.4688C194.909 21.2812 195.596 20.2188 196.409 19.2812C197.221 18.3438 198.206 17.625 199.362 17.125C200.549 16.5938 201.94 16.4062 203.534 16.5625C204.596 16.5625 205.456 16.9062 206.112 17.5938C206.768 18.25 207.112 19.125 207.143 20.2188L207.612 38.9219C207.612 39.0469 207.581 39.2344 207.518 39.4844C207.487 39.7031 207.362 39.8906 207.143 40.0469C206.956 40.2344 206.674 40.3438 206.299 40.375C205.956 40.4375 205.503 40.3594 204.94 40.1406L204.378 19.5156ZM212.146 39.0625C212.146 37.0312 212.099 34.8906 212.005 32.6406C211.943 30.3906 211.864 28.125 211.771 25.8438C211.708 23.5312 211.693 21.2656 211.724 19.0469C211.755 16.8281 211.896 14.75 212.146 12.8125C212.208 12.7813 212.349 12.7656 212.568 12.7656C212.818 12.7344 212.989 12.7188 213.083 12.7188C213.521 12.7188 213.864 12.7969 214.114 12.9531C214.396 13.0781 214.536 13.375 214.536 13.8438C214.536 15.6875 214.521 17.7031 214.489 19.8906C214.489 22.0469 214.474 24.25 214.443 26.5C214.443 28.7188 214.443 30.9219 214.443 33.1094C214.443 35.2969 214.474 37.2812 214.536 39.0625C214.568 39.5938 214.458 39.9375 214.208 40.0938C213.989 40.2812 213.708 40.375 213.364 40.375C212.989 40.375 212.677 40.2812 212.427 40.0938C212.177 39.9375 212.083 39.5938 212.146 39.0625ZM211.114 5.5C211.114 5.125 211.239 4.875 211.489 4.75C211.739 4.625 212.021 4.5625 212.333 4.5625C212.958 4.5625 213.349 4.76563 213.505 5.17188C213.661 5.57812 213.739 6.04687 213.739 6.57812C213.552 6.92188 213.318 7.17187 213.036 7.32812C212.755 7.45312 212.458 7.48438 212.146 7.42188C211.864 7.32812 211.614 7.125 211.396 6.8125C211.208 6.5 211.114 6.0625 211.114 5.5ZM222.914 39.2969C222.914 39.3281 223.242 39.1406 223.898 38.7344C224.586 38.3281 225.382 37.7969 226.289 37.1406C227.226 36.4531 228.179 35.7188 229.148 34.9375C230.117 34.125 230.914 33.3594 231.539 32.6406C232.164 31.9219 232.492 31.3125 232.523 30.8125C232.586 30.2812 232.164 29.9375 231.257 29.7812C230.132 29.625 229.179 29.6406 228.398 29.8281C227.648 30.0156 226.961 30.2344 226.336 30.4844C225.711 30.7344 225.117 30.9688 224.554 31.1875C224.023 31.4062 223.429 31.4844 222.773 31.4219C221.398 31.4219 220.445 31 219.914 30.1562C219.414 29.2812 219.164 28.1094 219.164 26.6406C219.164 25.1719 219.492 23.7812 220.148 22.4688C220.804 21.125 221.648 19.9688 222.679 19C223.711 18.0312 224.898 17.2656 226.242 16.7031C227.586 16.1094 228.961 15.8125 230.367 15.8125C230.929 15.8125 231.414 15.8594 231.82 15.9531C232.226 16.0469 232.429 16.4062 232.429 17.0312C232.429 17.4688 232.242 17.8906 231.867 18.2969C231.492 18.6719 231.07 18.8594 230.601 18.8594C230.57 18.8594 230.492 18.8438 230.367 18.8125C230.242 18.75 230.117 18.6719 229.992 18.5781C229.867 18.4844 229.742 18.4219 229.617 18.3906C229.492 18.3281 229.414 18.2969 229.382 18.2969C228.382 18.0156 227.414 18.1562 226.476 18.7188C225.539 19.2812 224.695 20.0469 223.945 21.0156C223.226 21.9531 222.648 22.9844 222.211 24.1094C221.773 25.2031 221.554 26.1875 221.554 27.0625C221.554 27.4062 221.617 27.6875 221.742 27.9062C221.898 28.0938 222.086 28.2344 222.304 28.3281C222.554 28.4219 222.82 28.4844 223.101 28.5156C223.414 28.5156 223.726 28.5156 224.039 28.5156C224.664 28.5156 225.289 28.4219 225.914 28.2344C226.57 28.0469 227.195 27.8281 227.789 27.5781C228.414 27.3281 229.039 27.1094 229.664 26.9219C230.32 26.7344 230.992 26.6406 231.679 26.6406C231.992 26.6406 232.336 26.7344 232.711 26.9219C233.086 27.0781 233.429 27.3281 233.742 27.6719C234.054 27.9844 234.32 28.3594 234.539 28.7969C234.757 29.2031 234.882 29.6562 234.914 30.1562C235.101 30.5938 235.039 31.1719 234.726 31.8906C234.445 32.6094 234.007 33.375 233.414 34.1875C232.82 35 232.101 35.8281 231.257 36.6719C230.414 37.4844 229.57 38.2344 228.726 38.9219C227.882 39.5781 227.054 40.1094 226.242 40.5156C225.429 40.9531 224.742 41.1562 224.179 41.125C223.554 41.125 223.179 40.9375 223.054 40.5625C222.961 40.1875 222.914 39.7656 222.914 39.2969ZM173.969 83.0625C173.969 81.0312 173.922 78.8906 173.828 76.6406C173.766 74.3906 173.688 72.125 173.594 69.8438C173.531 67.5312 173.516 65.2656 173.547 63.0469C173.578 60.8281 173.719 58.75 173.969 56.8125C174.031 56.7812 174.172 56.7656 174.391 56.7656C174.641 56.7344 174.812 56.7188 174.906 56.7188C175.344 56.7188 175.688 56.7969 175.938 56.9531C176.219 57.0781 176.359 57.375 176.359 57.8438C176.359 59.6875 176.344 61.7031 176.312 63.8906C176.312 66.0469 176.297 68.25 176.266 70.5C176.266 72.7188 176.266 74.9219 176.266 77.1094C176.266 79.2969 176.297 81.2812 176.359 83.0625C176.391 83.5938 176.281 83.9375 176.031 84.0938C175.812 84.2812 175.531 84.375 175.188 84.375C174.812 84.375 174.5 84.2812 174.25 84.0938C174 83.9375 173.906 83.5938 173.969 83.0625ZM172.938 49.5C172.938 49.125 173.062 48.875 173.312 48.75C173.562 48.625 173.844 48.5625 174.156 48.5625C174.781 48.5625 175.172 48.7656 175.328 49.1719C175.484 49.5781 175.562 50.0469 175.562 50.5781C175.375 50.9219 175.141 51.1719 174.859 51.3281C174.578 51.4531 174.281 51.4844 173.969 51.4219C173.688 51.3281 173.438 51.125 173.219 50.8125C173.031 50.5 172.938 50.0625 172.938 49.5ZM184.737 83.2969C184.737 83.3281 185.065 83.1406 185.721 82.7344C186.409 82.3281 187.206 81.7969 188.112 81.1406C189.049 80.4531 190.003 79.7188 190.971 78.9375C191.94 78.125 192.737 77.3594 193.362 76.6406C193.987 75.9219 194.315 75.3125 194.346 74.8125C194.409 74.2812 193.987 73.9375 193.081 73.7812C191.956 73.625 191.003 73.6406 190.221 73.8281C189.471 74.0156 188.784 74.2344 188.159 74.4844C187.534 74.7344 186.94 74.9688 186.378 75.1875C185.846 75.4062 185.253 75.4844 184.596 75.4219C183.221 75.4219 182.268 75 181.737 74.1562C181.237 73.2812 180.987 72.1094 180.987 70.6406C180.987 69.1719 181.315 67.7812 181.971 66.4688C182.628 65.125 183.471 63.9688 184.503 63C185.534 62.0312 186.721 61.2656 188.065 60.7031C189.409 60.1094 190.784 59.8125 192.19 59.8125C192.753 59.8125 193.237 59.8594 193.643 59.9531C194.049 60.0469 194.253 60.4062 194.253 61.0312C194.253 61.4688 194.065 61.8906 193.69 62.2969C193.315 62.6719 192.893 62.8594 192.424 62.8594C192.393 62.8594 192.315 62.8438 192.19 62.8125C192.065 62.75 191.94 62.6719 191.815 62.5781C191.69 62.4844 191.565 62.4219 191.44 62.3906C191.315 62.3281 191.237 62.2969 191.206 62.2969C190.206 62.0156 189.237 62.1562 188.299 62.7188C187.362 63.2812 186.518 64.0469 185.768 65.0156C185.049 65.9531 184.471 66.9844 184.034 68.1094C183.596 69.2031 183.378 70.1875 183.378 71.0625C183.378 71.4062 183.44 71.6875 183.565 71.9062C183.721 72.0938 183.909 72.2344 184.128 72.3281C184.378 72.4219 184.643 72.4844 184.924 72.5156C185.237 72.5156 185.549 72.5156 185.862 72.5156C186.487 72.5156 187.112 72.4219 187.737 72.2344C188.393 72.0469 189.018 71.8281 189.612 71.5781C190.237 71.3281 190.862 71.1094 191.487 70.9219C192.143 70.7344 192.815 70.6406 193.503 70.6406C193.815 70.6406 194.159 70.7344 194.534 70.9219C194.909 71.0781 195.253 71.3281 195.565 71.6719C195.878 71.9844 196.143 72.3594 196.362 72.7969C196.581 73.2031 196.706 73.6562 196.737 74.1562C196.924 74.5938 196.862 75.1719 196.549 75.8906C196.268 76.6094 195.831 77.375 195.237 78.1875C194.643 79 193.924 79.8281 193.081 80.6719C192.237 81.4844 191.393 82.2344 190.549 82.9219C189.706 83.5781 188.878 84.1094 188.065 84.5156C187.253 84.9531 186.565 85.1562 186.003 85.125C185.378 85.125 185.003 84.9375 184.878 84.5625C184.784 84.1875 184.737 83.7656 184.737 83.2969ZM224.976 83.8594C224.882 82.9844 224.804 81.7969 224.742 80.2969C224.679 78.7969 224.617 77.1719 224.554 75.4219C224.492 73.6406 224.414 71.7969 224.32 69.8906C224.257 67.9844 224.179 66.1719 224.086 64.4531C223.992 62.7344 223.867 61.1719 223.711 59.7656C223.586 58.3594 223.445 57.2344 223.289 56.3906C223.289 55.7656 223.429 55.4062 223.711 55.3125C223.992 55.1875 224.351 55.125 224.789 55.125C224.851 55.125 224.992 55.125 225.211 55.125C225.429 55.125 225.586 55.1406 225.679 55.1719C225.961 56.1094 226.132 57.3281 226.195 58.8281C226.289 60.2969 226.351 61.9062 226.382 63.6562C226.445 65.4062 226.492 67.2188 226.523 69.0938C226.586 70.9688 226.695 72.75 226.851 74.4375C227.289 71.9688 227.648 69.9219 227.929 68.2969C228.242 66.6719 228.523 65.375 228.773 64.4062C229.054 63.4062 229.304 62.6719 229.523 62.2031C229.773 61.7031 230.039 61.375 230.32 61.2188C230.632 61.0625 230.961 61 231.304 61.0312C231.679 61.0312 232.117 61.0312 232.617 61.0312C233.179 61.0312 233.632 61.25 233.976 61.6875C234.351 62.125 234.632 62.6875 234.82 63.375C235.039 64.0625 235.195 64.8125 235.289 65.625C235.414 66.4375 235.523 67.2344 235.617 68.0156C235.711 68.7656 235.804 69.4531 235.898 70.0781C236.023 70.7031 236.211 71.1406 236.461 71.3906C237.242 69.0781 237.914 67.1875 238.476 65.7188C239.039 64.25 239.523 63.0938 239.929 62.25C240.336 61.375 240.695 60.75 241.007 60.375C241.32 60 241.601 59.7812 241.851 59.7188C242.101 59.625 242.32 59.6094 242.507 59.6719C242.726 59.7344 242.945 59.7656 243.164 59.7656C244.007 59.7656 244.648 60.2031 245.086 61.0781C245.586 62.4844 245.929 63.8281 246.117 65.1094C246.304 66.3594 246.414 67.5781 246.445 68.7656C246.476 69.9219 246.476 71.0312 246.445 72.0938C246.445 73.1562 246.476 74.1875 246.539 75.1875C246.632 76.1875 246.804 77.1719 247.054 78.1406C247.336 79.1094 247.804 80.0625 248.461 81C248.211 81.5 247.961 81.8438 247.711 82.0312C247.461 82.1875 247.117 82.2656 246.679 82.2656C246.304 82.2656 245.976 82.1406 245.695 81.8906C245.414 81.6094 245.179 81.2812 244.992 80.9062C244.804 80.5 244.648 80.0938 244.523 79.6875C244.429 79.2812 244.336 78.9219 244.242 78.6094C244.117 74.1406 243.914 70.7188 243.632 68.3438C243.382 65.9375 242.992 64.6719 242.461 64.5469C241.929 64.4219 241.242 65.4688 240.398 67.6875C239.586 69.875 238.57 73.3125 237.351 78C237.257 78.1562 237.117 78.25 236.929 78.2812C236.742 78.3125 236.539 78.3281 236.32 78.3281C236.132 78.3281 235.929 78.3281 235.711 78.3281C235.523 78.2969 235.336 78.2969 235.148 78.3281C234.367 73.7344 233.711 70.4375 233.179 68.4375C232.679 66.4062 232.164 65.625 231.632 66.0938C231.101 66.5625 230.507 68.25 229.851 71.1562C229.195 74.0312 228.351 78.0781 227.32 83.2969L224.976 83.8594ZM253.698 73.875C253.541 73.9062 253.307 73.9531 252.994 74.0156C252.682 74.0781 252.354 74.0938 252.01 74.0625C251.666 74.0312 251.369 73.9375 251.119 73.7812C250.838 73.625 250.698 73.3594 250.698 72.9844C250.698 72.7656 250.744 72.6094 250.838 72.5156C250.932 72.4219 251.088 72.2812 251.307 72.0938C251.994 71.5312 252.573 70.8125 253.041 69.9375C253.541 69.0312 253.994 68.0781 254.401 67.0781C254.807 66.0469 255.229 65.0312 255.666 64.0312C256.135 63 256.666 62.0781 257.26 61.2656C257.854 60.4531 258.588 59.7969 259.463 59.2969C260.338 58.7969 261.416 58.5625 262.698 58.5938C263.229 58.5938 263.823 58.7188 264.479 58.9688C265.135 59.2188 265.744 59.5625 266.307 60C266.869 60.4062 267.338 60.9062 267.713 61.5C268.088 62.0938 268.276 62.75 268.276 63.4688C268.432 63.7188 268.276 64.0781 267.807 64.5469C267.369 65.0156 266.76 65.5312 265.979 66.0938C265.198 66.625 264.307 67.1875 263.307 67.7812C262.338 68.3438 261.401 68.875 260.494 69.375C259.588 69.875 258.791 70.3125 258.104 70.6875C257.416 71.0625 256.963 71.3438 256.744 71.5312C256.588 71.8438 256.463 72.2031 256.369 72.6094C256.276 73.0156 256.198 73.4062 256.135 73.7812C256.104 74.125 256.073 74.4531 256.041 74.7656C256.041 75.0469 256.041 75.2656 256.041 75.4219C256.041 76.0156 256.01 76.6719 255.948 77.3906C255.916 78.1094 255.948 78.7969 256.041 79.4531C256.166 80.0781 256.432 80.6094 256.838 81.0469C257.244 81.4531 257.932 81.6562 258.901 81.6562C259.932 81.6562 260.901 81.4062 261.807 80.9062C262.713 80.375 263.557 79.7344 264.338 78.9844C265.119 78.2344 265.823 77.4219 266.448 76.5469C267.104 75.6719 267.682 74.8594 268.182 74.1094C268.713 73.3281 269.182 72.6875 269.588 72.1875C269.994 71.6875 270.338 71.4375 270.619 71.4375C270.932 71.4375 271.26 71.5 271.604 71.625C271.979 71.7188 272.166 71.9688 272.166 72.375C272.166 72.9375 271.932 73.6094 271.463 74.3906C271.026 75.1719 270.432 76 269.682 76.875C268.963 77.75 268.119 78.625 267.151 79.5C266.213 80.3438 265.26 81.1094 264.291 81.7969C263.323 82.4531 262.369 83 261.432 83.4375C260.494 83.8438 259.666 84.0469 258.948 84.0469C257.541 84.0469 256.479 83.7031 255.76 83.0156C255.041 82.3281 254.526 81.4688 254.213 80.4375C253.932 79.4062 253.776 78.3125 253.744 77.1562C253.744 75.9688 253.729 74.875 253.698 73.875ZM262.323 61.2188C261.791 61.2188 261.229 61.4844 260.635 62.0156C260.041 62.5156 259.479 63.1406 258.948 63.8906C258.448 64.6094 258.026 65.3594 257.682 66.1406C257.369 66.8906 257.213 67.5156 257.213 68.0156C257.682 68.0156 258.354 67.8438 259.229 67.5C260.135 67.125 261.026 66.6719 261.901 66.1406C262.776 65.6094 263.541 65.0469 264.198 64.4531C264.854 63.8594 265.182 63.2969 265.182 62.7656C265.182 62.4844 265.073 62.25 264.854 62.0625C264.635 61.875 264.369 61.7188 264.057 61.5938C263.776 61.4688 263.479 61.375 263.166 61.3125C262.854 61.25 262.573 61.2188 262.323 61.2188Z" fill="white"/>
</svg>
